<svg xmlns="http://www.w3.org/2000/svg" width="18" height="19" viewBox="0 0 18 19">
    <path fill="#C5242A" fill-rule="nonzero" d="M16.5 7.625c.339 0 .631.124.879.371.247.248.371.54.371.879v1.25c0 .339-.124.632-.371.879-.248.247-.54.371-.879.371h-5.625V17c0 .339-.124.632-.371.879-.248.247-.54.371-.879.371h-1.25c-.339 0-.632-.124-.879-.371A1.201 1.201 0 0 1 7.125 17v-5.625H1.5c-.339 0-.632-.124-.879-.371a1.201 1.201 0 0 1-.371-.879v-1.25c0-.339.124-.631.371-.879.247-.247.54-.371.879-.371h5.625V2c0-.339.124-.631.371-.879.247-.247.54-.371.879-.371h1.25c.339 0 .631.124.879.371.247.248.371.54.371.879v5.625H16.5z"/>
</svg>
