<svg xmlns="http://www.w3.org/2000/svg" width="15" height="21" viewBox="0 0 15 21">
    <path fill="#C5242A" fill-rule="nonzero" d="M7.39.5c1.12 0 2.208.267 3.262.8 1.055.535 1.908 1.244 2.559 2.13.703.963 1.055 1.992 1.055 3.086 0 .859-.183 1.614-.547 2.265a5.295 5.295 0 0 1-1.29 1.485c-.338.26-.846.586-1.523.976-.547.313-.911.547-1.094.703-.312.26-.468.534-.468.82V13c0 .26-.091.482-.274.664a.904.904 0 0 1-.664.274H5.594a.904.904 0 0 1-.664-.274.904.904 0 0 1-.274-.664v-.39c0-1.042.339-1.928 1.016-2.657.417-.417 1.12-.898 2.11-1.445l.077-.04c.703-.39 1.172-.702 1.407-.937.338-.312.507-.664.507-1.054 0-.573-.3-1.042-.898-1.407a3.173 3.173 0 0 0-1.797-.547c-.703 0-1.302.17-1.797.508-.39.26-.872.73-1.445 1.407a.912.912 0 0 1-.606.37.872.872 0 0 1-.683-.175l-1.68-1.29a.912.912 0 0 1-.37-.605.872.872 0 0 1 .175-.683C1.505 2.883 2.43 2.01 3.445 1.438 4.565.813 5.88.5 7.391.5zM7 15.07a2.57 2.57 0 0 1 1.914.801c.52.534.781 1.172.781 1.914s-.26 1.38-.781 1.914A2.57 2.57 0 0 1 7 20.5a2.57 2.57 0 0 1-1.914-.8 2.645 2.645 0 0 1-.781-1.915c0-.742.26-1.38.78-1.914a2.57 2.57 0 0 1 1.915-.8z"/>
</svg>
