<svg xmlns="http://www.w3.org/2000/svg" width="20" height="21" viewBox="0 0 20 21">
    <path fill="#C5242A" fill-rule="nonzero" d="M12.773 7.727a5.953 5.953 0 0 1 1.524 2.695 6.039 6.039 0 0 1 0 3.047 5.698 5.698 0 0 1-1.524 2.656l-2.656 2.656a5.698 5.698 0 0 1-2.656 1.524 6.039 6.039 0 0 1-3.047 0 5.749 5.749 0 0 1-2.676-1.543 5.749 5.749 0 0 1-1.543-2.676 6.039 6.039 0 0 1 0-3.047 5.698 5.698 0 0 1 1.524-2.656l1.484-1.485c.182-.182.397-.22.645-.117a.626.626 0 0 1 .41.547 7.1 7.1 0 0 0 .39 2.07c.079.235.026.443-.156.625l-.508.547a2.76 2.76 0 0 0-.84 1.973c-.012.768.254 1.432.801 1.992s1.211.84 1.992.84c.782 0 1.446-.273 1.993-.82l2.617-2.617c.547-.547.82-1.211.82-1.993 0-.78-.273-1.445-.82-1.992a2.81 2.81 0 0 0-.43-.351c-.156-.105-.234-.26-.234-.47-.026-.468.117-.859.43-1.171l.859-.82a.586.586 0 0 1 .37-.176c.144-.013.28.02.411.098.287.208.56.43.82.664zm5.508-5.508a5.953 5.953 0 0 1 1.524 2.695 6.039 6.039 0 0 1 0 3.047 5.698 5.698 0 0 1-1.524 2.656l-1.484 1.485c-.182.182-.397.22-.645.117a.626.626 0 0 1-.41-.547 7.1 7.1 0 0 0-.39-2.07c-.079-.235-.027-.443.156-.625l.508-.547a2.76 2.76 0 0 0 .84-1.973c.012-.768-.254-1.432-.801-1.992a2.68 2.68 0 0 0-1.993-.84c-.78 0-1.445.273-1.992.82L9.453 7.063a2.712 2.712 0 0 0-.82 1.992c0 .781.273 1.445.82 1.992.13.13.274.247.43.351.156.105.234.26.234.47.026.468-.117.859-.43 1.171l-.859.82a.586.586 0 0 1-.371.176.663.663 0 0 1-.41-.097c-.287-.209-.56-.43-.82-.665a5.953 5.953 0 0 1-1.524-2.695 6.039 6.039 0 0 1 0-3.047 5.698 5.698 0 0 1 1.524-2.656l2.656-2.656A5.698 5.698 0 0 1 12.539.695a6.039 6.039 0 0 1 3.047 0A5.953 5.953 0 0 1 18.28 2.22z"/>
</svg>
