<svg xmlns="http://www.w3.org/2000/svg" width="24" height="15" viewBox="0 0 24 15">
    <path fill="#C5242A" fill-rule="nonzero" d="M23.133 13.242c.182.417.156.814-.078 1.192a1.126 1.126 0 0 1-1.016.566h-7.656l-.43-3.828a.501.501 0 0 0-.176-.39.65.65 0 0 0-.449-.157h-2.656a.65.65 0 0 0-.45.156.501.501 0 0 0-.175.39L9.617 15H1.961c-.443 0-.781-.189-1.016-.566-.234-.378-.26-.775-.078-1.192L6.336.742c.078-.234.215-.416.41-.547.195-.13.41-.195.645-.195h3.828l-.117.898c0 .105.032.19.097.254a.299.299 0 0 0 .215.098h1.172c.078 0 .15-.033.215-.098a.343.343 0 0 0 .097-.254L12.781 0h3.828c.235 0 .45.065.645.195s.332.313.41.547l5.469 12.5zM10.906 2.773l-.156 1.72a.393.393 0 0 0 .098.35.468.468 0 0 0 .37.157h1.563c.156 0 .28-.052.371-.156a.393.393 0 0 0 .098-.352l-.156-1.719a.49.49 0 0 0-.117-.195.265.265 0 0 0-.196-.078H11.22a.265.265 0 0 0-.196.078.49.49 0 0 0-.117.195zm2.188 6.602a.555.555 0 0 0 .449-.215.75.75 0 0 0 .176-.488l-.235-1.875a.501.501 0 0 0-.175-.39.598.598 0 0 0-.41-.157h-1.797a.598.598 0 0 0-.41.156.501.501 0 0 0-.176.39l-.235 1.876a.75.75 0 0 0 .176.488.555.555 0 0 0 .45.215h2.187z"/>
</svg>
