<svg xmlns="http://www.w3.org/2000/svg" width="24" height="15" viewBox="0 0 24 15">
    <path fill="#C5242A" fill-rule="nonzero" d="M22.977 6.563c.182.286.273.598.273.937 0 .339-.091.651-.273.938a12.503 12.503 0 0 1-4.57 4.53c-1.954 1.147-4.09 1.72-6.407 1.72-2.318 0-4.453-.573-6.406-1.72a12.503 12.503 0 0 1-4.57-4.53A1.712 1.712 0 0 1 .75 7.5c0-.339.091-.651.273-.937a12.503 12.503 0 0 1 4.57-4.532C7.548.885 9.684.313 12 .313c2.318 0 4.453.572 6.406 1.718a12.503 12.503 0 0 1 4.57 4.532zM12 12.813c.964 0 1.849-.241 2.656-.723a5.5 5.5 0 0 0 1.934-1.934 5.088 5.088 0 0 0 .722-2.656c0-.964-.24-1.849-.722-2.656a5.5 5.5 0 0 0-1.934-1.934A5.088 5.088 0 0 0 12 2.188c-.964 0-1.849.24-2.656.722A5.5 5.5 0 0 0 7.41 4.844 5.088 5.088 0 0 0 6.687 7.5c0 .964.241 1.849.723 2.656a5.5 5.5 0 0 0 1.934 1.934 5.088 5.088 0 0 0 2.656.723zM16.062 7.5c0 1.12-.397 2.077-1.19 2.871-.795.794-1.752 1.192-2.872 1.192-1.12 0-2.077-.398-2.871-1.192C8.335 9.577 7.937 8.62 7.937 7.5c0-.677.157-1.315.47-1.914 0 .469.162.866.488 1.191.325.326.722.489 1.19.489.47 0 .867-.163 1.192-.489.326-.325.489-.722.489-1.191 0-.469-.163-.866-.489-1.191a1.621 1.621 0 0 0-1.191-.489A4.079 4.079 0 0 1 12 3.438c1.12 0 2.077.397 2.871 1.19.794.795 1.191 1.752 1.191 2.872z"/>
</svg>
